<svg width="10" height="10" viewBox="0 0 10 10" fill="none" xmlns="http://www.w3.org/2000/svg">
<path d="M9.93101 4.67702C9.89138 4.57482 9.83196 4.48144 9.75616 4.40225L5.59292 0.239015C5.51529 0.16138 5.42312 0.0997971 5.32169 0.0577815C5.22025 0.0157658 5.11153 -0.0058596 5.00174 -0.00585959C4.78001 -0.00585958 4.56735 0.0822245 4.41056 0.239015C4.33293 0.31665 4.27134 0.408816 4.22933 0.510251C4.18731 0.611685 4.16569 0.720402 4.16569 0.830195C4.16569 1.05193 4.25377 1.26458 4.41056 1.42137L7.1583 4.16078L0.838507 4.16078C0.617675 4.16078 0.405888 4.24851 0.249736 4.40466C0.0935848 4.56081 0.00585958 4.7726 0.00585959 4.99343C0.0058596 5.21426 0.0935848 5.42605 0.249736 5.5822C0.405888 5.73835 0.617675 5.82608 0.838507 5.82608L7.1583 5.82608L4.41056 8.56549C4.33252 8.64289 4.27058 8.73498 4.2283 8.83645C4.18603 8.93791 4.16427 9.04675 4.16427 9.15667C4.16427 9.26658 4.18603 9.37542 4.2283 9.47688C4.27058 9.57835 4.33252 9.67044 4.41056 9.74784C4.48797 9.82589 4.58006 9.88783 4.68153 9.93011C4.78299 9.97238 4.89182 9.99414 5.00174 9.99414C5.11166 9.99414 5.22049 9.97238 5.32196 9.9301C5.42343 9.88783 5.51552 9.82589 5.59292 9.74784L9.75616 5.58461C9.83196 5.50542 9.89138 5.41204 9.93101 5.30984C10.0143 5.10712 10.0143 4.87974 9.93101 4.67702Z" fill="#CCC9BB"/>
</svg>
