<svg width="10" height="10" viewBox="0 0 10 10" fill="none" xmlns="http://www.w3.org/2000/svg">
<path d="M0.0621508 5.31712C0.10178 5.41933 0.161202 5.5127 0.237007 5.59189L4.40024 9.75513C4.47788 9.83276 4.57004 9.89434 4.67148 9.93636C4.77291 9.97837 4.88163 10 4.99142 10C5.21316 10 5.42581 9.91192 5.5826 9.75513C5.66024 9.67749 5.72182 9.58532 5.76384 9.48389C5.80585 9.38246 5.82748 9.27374 5.82748 9.16395C5.82748 8.94221 5.73939 8.72956 5.5826 8.57277L2.83487 5.83336L9.15466 5.83336C9.37549 5.83336 9.58728 5.74563 9.74343 5.58948C9.89958 5.43333 9.9873 5.22154 9.9873 5.00071C9.9873 4.77988 9.89958 4.56809 9.74343 4.41194C9.58728 4.25579 9.37549 4.16806 9.15466 4.16806L2.83487 4.16806L5.5826 1.42865C5.66064 1.35125 5.72259 1.25916 5.76486 1.15769C5.80713 1.05623 5.8289 0.947394 5.8289 0.837475C5.8289 0.727556 5.80713 0.618724 5.76486 0.517258C5.72259 0.415792 5.66064 0.323701 5.5826 0.246296C5.5052 0.168253 5.4131 0.106308 5.31164 0.0640356C5.21017 0.0217632 5.10134 2.13572e-07 4.99142 2.18377e-07C4.8815 2.23182e-07 4.77267 0.0217633 4.6712 0.0640356C4.56974 0.106308 4.47765 0.168253 4.40024 0.246296L0.237007 4.40953C0.161202 4.48872 0.10178 4.5821 0.0621507 4.6843C-0.021129 4.88702 -0.021129 5.1144 0.0621508 5.31712Z" fill="#CCC9BB"/>
</svg>
