<svg width="10" height="10" viewBox="0 0 10 10" fill="none" xmlns="http://www.w3.org/2000/svg">
<path d="M5.31712 9.92509C5.41932 9.88546 5.5127 9.82604 5.59189 9.75024L9.75513 5.587C9.83276 5.50937 9.89434 5.4172 9.93636 5.31577C9.97837 5.21433 10 5.10561 10 4.99582C10 4.77409 9.91192 4.56143 9.75513 4.40464C9.67749 4.32701 9.58532 4.26542 9.48389 4.22341C9.38246 4.18139 9.27374 4.15977 9.16395 4.15977C8.94221 4.15977 8.72956 4.24785 8.57277 4.40464L5.83336 7.15238L5.83336 0.832586C5.83336 0.611754 5.74563 0.399967 5.58948 0.243816C5.43333 0.0876642 5.22154 -6.10352e-05 5.00071 -6.10352e-05C4.77988 -6.10352e-05 4.56809 0.0876642 4.41194 0.243816C4.25579 0.399967 4.16806 0.611754 4.16806 0.832586L4.16806 7.15238L1.42865 4.40464C1.35125 4.3266 1.25916 4.26466 1.15769 4.22238C1.05623 4.18011 0.947394 4.15835 0.837475 4.15835C0.727556 4.15835 0.618723 4.18011 0.517258 4.22238C0.415792 4.26466 0.323701 4.3266 0.246296 4.40464C0.168253 4.48205 0.106308 4.57414 0.0640354 4.67561C0.021763 4.77707 0 4.8859 0 4.99582C0 5.10574 0.021763 5.21457 0.0640354 5.31604C0.106308 5.4175 0.168253 5.5096 0.246296 5.587L4.40953 9.75024C4.48872 9.82604 4.5821 9.88546 4.6843 9.92509C4.88702 10.0084 5.1144 10.0084 5.31712 9.92509Z" fill="#CCC9BB"/>
</svg>
