<svg width="408" height="63" viewBox="0 0 408 63" fill="#CCC9BB" xmlns="http://www.w3.org/2000/svg">
<path d="M3.58203 52V10.9844H10.8281V15.4414C11.2292 13.9831 11.9583 12.7982 13.0156 11.8867C14.0911 10.957 15.5495 10.4922 17.3906 10.4922C18.7943 10.4922 20.0156 10.8021 21.0547 11.4219C22.0938 12.0417 22.8958 13.1081 23.4609 14.6211C24.1536 13.3451 25.0651 12.3424 26.1953 11.6133C27.3255 10.8659 28.7383 10.4922 30.4336 10.4922C33.0951 10.4922 34.9818 11.3854 36.0938 13.1719C37.2057 14.9583 37.7617 17.4284 37.7617 20.582V52H30.543V20.5C30.543 19.0417 30.2969 18.0026 29.8047 17.3828C29.3125 16.7448 28.638 16.4258 27.7812 16.4258C26.6875 16.4258 25.8307 16.8086 25.2109 17.5742C24.6094 18.3216 24.3086 19.4245 24.3086 20.8828V52H17.0625V20.4453C17.0625 19.224 16.8529 18.2487 16.4336 17.5195C16.0326 16.7904 15.349 16.4258 14.3828 16.4258C13.125 16.4258 12.2135 16.9089 11.6484 17.875C11.1016 18.8229 10.8281 19.9531 10.8281 21.2656V52H3.58203ZM51.4062 52.4102C48.599 52.4102 46.6484 51.3893 45.5547 49.3477C44.4792 47.306 43.9232 44.599 43.8867 41.2266V38.6016C43.8867 36.4141 44.1966 34.6367 44.8164 33.2695C45.4544 31.9023 46.3568 30.7904 47.5234 29.9336C48.6901 29.0768 50.0846 28.3294 51.707 27.6914C53.3294 27.0534 55.1341 26.3698 57.1211 25.6406V22.0586C57.1211 20.6732 57.0664 19.5703 56.957 18.75C56.8477 17.9115 56.6016 17.3008 56.2188 16.918C55.8359 16.5352 55.2435 16.3438 54.4414 16.3438C53.6576 16.3438 53.056 16.5443 52.6367 16.9453C52.2357 17.3281 51.9622 17.9297 51.8164 18.75C51.6706 19.5521 51.5977 20.582 51.5977 21.8398V23.6719H44.4336V22.4414C44.4336 20.5638 44.5885 18.8867 44.8984 17.4102C45.2266 15.9336 45.7734 14.6849 46.5391 13.6641C47.3047 12.625 48.3438 11.8411 49.6562 11.3125C50.987 10.7656 52.6549 10.4922 54.6602 10.4922C56.4284 10.4922 57.9414 10.7474 59.1992 11.2578C60.457 11.75 61.4779 12.4974 62.2617 13.5C63.0456 14.4844 63.6198 15.724 63.9844 17.2188C64.349 18.7135 64.5312 20.4544 64.5312 22.4414V52H57.2305V47.9258C57.0117 48.7096 56.638 49.4479 56.1094 50.1406C55.5807 50.8151 54.9154 51.362 54.1133 51.7812C53.3294 52.2005 52.4271 52.4102 51.4062 52.4102ZM53.9219 46.832C54.8333 46.832 55.5625 46.5039 56.1094 45.8477C56.6562 45.1914 56.9935 44.526 57.1211 43.8516V29.7422C56.0273 30.2344 55.1068 30.6992 54.3594 31.1367C53.612 31.556 53.0104 32.0208 52.5547 32.5312C52.099 33.0417 51.7708 33.6432 51.5703 34.3359C51.3698 35.0286 51.2695 35.8763 51.2695 36.8789V41.4727C51.2695 43.3503 51.4609 44.7174 51.8438 45.5742C52.2448 46.4128 52.9375 46.832 53.9219 46.832ZM79.7344 52.5195C76.4349 52.5195 73.9831 51.5807 72.3789 49.7031C70.7747 47.8255 69.9727 44.7539 69.9727 40.4883V37.8359H76.7812V41.1445C76.7812 42.931 77 44.2891 77.4375 45.2188C77.875 46.1484 78.5859 46.6133 79.5703 46.6133C80.5182 46.6133 81.2201 46.2943 81.6758 45.6562C82.1315 45.0182 82.3594 43.9154 82.3594 42.3477C82.3594 41.4362 82.2227 40.5521 81.9492 39.6953C81.694 38.8385 81.2839 38 80.7188 37.1797C80.1719 36.3411 79.4609 35.5299 78.5859 34.7461L74.8945 31.4102C73.1992 29.8789 71.9323 28.2292 71.0938 26.4609C70.2552 24.6745 69.8359 22.7057 69.8359 20.5547C69.8359 17.0729 70.6471 14.5299 72.2695 12.9258C73.9102 11.3034 76.3346 10.4922 79.543 10.4922C81.6211 10.4922 83.3438 10.8841 84.7109 11.668C86.0781 12.4336 87.099 13.6823 87.7734 15.4141C88.4479 17.1458 88.7852 19.4701 88.7852 22.3867V24.6289H82.3047V21.9219C82.3047 20.1172 82.0951 18.75 81.6758 17.8203C81.2747 16.8906 80.582 16.4258 79.5977 16.4258C78.6315 16.4258 77.9206 16.6992 77.4648 17.2461C77.0091 17.7747 76.763 18.7135 76.7266 20.0625C76.7083 20.7917 76.7995 21.5117 77 22.2227C77.2005 22.9154 77.5104 23.599 77.9297 24.2734C78.3672 24.9297 78.9323 25.5768 79.625 26.2148L83.5078 29.7422C85.5495 31.5833 87.0534 33.5065 88.0195 35.5117C89.0039 37.5169 89.4961 39.6862 89.4961 42.0195C89.4961 45.4648 88.7122 48.0807 87.1445 49.8672C85.5768 51.6354 83.1068 52.5195 79.7344 52.5195ZM94.9102 52V3.46484H102.156V15.6875C102.521 14.2839 103.25 13.0716 104.344 12.0508C105.456 11.0117 106.85 10.4922 108.527 10.4922C110.915 10.4922 112.711 11.2852 113.914 12.8711C115.135 14.4388 115.746 16.7174 115.746 19.707V52H108.527V20.3906C108.527 19.0781 108.272 18.0938 107.762 17.4375C107.27 16.763 106.559 16.4258 105.629 16.4258C104.882 16.4258 104.243 16.6354 103.715 17.0547C103.204 17.474 102.812 18.0664 102.539 18.832C102.284 19.5977 102.156 20.4909 102.156 21.5117V52H94.9102ZM129.391 52.4102C126.583 52.4102 124.633 51.3893 123.539 49.3477C122.464 47.306 121.908 44.599 121.871 41.2266V38.6016C121.871 36.4141 122.181 34.6367 122.801 33.2695C123.439 31.9023 124.341 30.7904 125.508 29.9336C126.674 29.0768 128.069 28.3294 129.691 27.6914C131.314 27.0534 133.118 26.3698 135.105 25.6406V22.0586C135.105 20.6732 135.051 19.5703 134.941 18.75C134.832 17.9115 134.586 17.3008 134.203 16.918C133.82 16.5352 133.228 16.3438 132.426 16.3438C131.642 16.3438 131.04 16.5443 130.621 16.9453C130.22 17.3281 129.947 17.9297 129.801 18.75C129.655 19.5521 129.582 20.582 129.582 21.8398V23.6719H122.418V22.4414C122.418 20.5638 122.573 18.8867 122.883 17.4102C123.211 15.9336 123.758 14.6849 124.523 13.6641C125.289 12.625 126.328 11.8411 127.641 11.3125C128.971 10.7656 130.639 10.4922 132.645 10.4922C134.413 10.4922 135.926 10.7474 137.184 11.2578C138.441 11.75 139.462 12.4974 140.246 13.5C141.03 14.4844 141.604 15.724 141.969 17.2188C142.333 18.7135 142.516 20.4544 142.516 22.4414V52H135.215V47.9258C134.996 48.7096 134.622 49.4479 134.094 50.1406C133.565 50.8151 132.9 51.362 132.098 51.7812C131.314 52.2005 130.411 52.4102 129.391 52.4102ZM131.906 46.832C132.818 46.832 133.547 46.5039 134.094 45.8477C134.641 45.1914 134.978 44.526 135.105 43.8516V29.7422C134.012 30.2344 133.091 30.6992 132.344 31.1367C131.596 31.556 130.995 32.0208 130.539 32.5312C130.083 33.0417 129.755 33.6432 129.555 34.3359C129.354 35.0286 129.254 35.8763 129.254 36.8789V41.4727C129.254 43.3503 129.445 44.7174 129.828 45.5742C130.229 46.4128 130.922 46.832 131.906 46.832ZM149.352 23.6172V16.2617H157.09V23.6172H149.352ZM149.352 44.6172V37.2617H157.09V44.6172H149.352ZM174.344 52.4922C172.247 52.4922 170.516 52.1732 169.148 51.5352C167.781 50.8789 166.706 49.9401 165.922 48.7188C165.156 47.4974 164.618 46.0117 164.309 44.2617C163.999 42.5117 163.844 40.5339 163.844 38.3281V25.0391C163.844 22.013 164.126 19.4154 164.691 17.2461C165.257 15.0768 166.296 13.4089 167.809 12.2422C169.34 11.0755 171.546 10.4922 174.426 10.4922C176.194 10.4922 177.689 10.7656 178.91 11.3125C180.132 11.8594 181.116 12.6523 181.863 13.6914C182.611 14.7122 183.148 15.9518 183.477 17.4102C183.823 18.8685 183.996 20.5091 183.996 22.332V26.8438H176.996V22.0859C176.996 20.901 176.941 19.8893 176.832 19.0508C176.723 18.194 176.477 17.5469 176.094 17.1094C175.711 16.6536 175.1 16.4258 174.262 16.4258C173.441 16.4258 172.803 16.6536 172.348 17.1094C171.892 17.5651 171.573 18.2305 171.391 19.1055C171.227 19.9622 171.145 20.9922 171.145 22.1953V40.6797C171.145 41.9193 171.217 42.9766 171.363 43.8516C171.527 44.7266 171.819 45.401 172.238 45.875C172.676 46.3307 173.314 46.5586 174.152 46.5586C174.973 46.5586 175.583 46.3216 175.984 45.8477C176.404 45.3555 176.677 44.6719 176.805 43.7969C176.932 42.9219 176.996 41.8919 176.996 40.707V35.8398H183.996V39.9961C183.996 41.8737 183.832 43.5872 183.504 45.1367C183.176 46.668 182.638 47.9805 181.891 49.0742C181.143 50.168 180.15 51.0156 178.91 51.6172C177.671 52.2005 176.148 52.4922 174.344 52.4922ZM190.176 52V3.46484H197.422V15.6875C197.786 14.2839 198.516 13.0716 199.609 12.0508C200.721 11.0117 202.116 10.4922 203.793 10.4922C206.181 10.4922 207.977 11.2852 209.18 12.8711C210.401 14.4388 211.012 16.7174 211.012 19.707V52H203.793V20.3906C203.793 19.0781 203.538 18.0938 203.027 17.4375C202.535 16.763 201.824 16.4258 200.895 16.4258C200.147 16.4258 199.509 16.6354 198.98 17.0547C198.47 17.474 198.078 18.0664 197.805 18.832C197.549 19.5977 197.422 20.4909 197.422 21.5117V52H190.176ZM218.094 52V10.9844H225.34V52H218.094ZM218.066 7.21094V0.921875H225.367V7.21094H218.066ZM240.078 52.2734C238.328 52.2734 236.988 52.0547 236.059 51.6172C235.129 51.1615 234.491 50.4505 234.145 49.4844C233.798 48.5182 233.625 47.2695 233.625 45.7383V17.082H230.289V11.832H233.625V3.875H240.871V11.832H244.863V17.082H240.871V44.4805C240.871 45.1185 240.971 45.6016 241.172 45.9297C241.372 46.2578 241.764 46.4766 242.348 46.5859C242.949 46.6953 243.833 46.75 245 46.75V52.2734H240.078ZM260.039 52.4922C257.943 52.4922 256.211 52.1732 254.844 51.5352C253.477 50.8789 252.401 49.9401 251.617 48.7188C250.852 47.4974 250.314 46.0117 250.004 44.2617C249.694 42.5117 249.539 40.5339 249.539 38.3281V25.0391C249.539 22.013 249.822 19.4154 250.387 17.2461C250.952 15.0768 251.991 13.4089 253.504 12.2422C255.035 11.0755 257.241 10.4922 260.121 10.4922C261.889 10.4922 263.384 10.7656 264.605 11.3125C265.827 11.8594 266.811 12.6523 267.559 13.6914C268.306 14.7122 268.844 15.9518 269.172 17.4102C269.518 18.8685 269.691 20.5091 269.691 22.332V26.8438H262.691V22.0859C262.691 20.901 262.637 19.8893 262.527 19.0508C262.418 18.194 262.172 17.5469 261.789 17.1094C261.406 16.6536 260.796 16.4258 259.957 16.4258C259.137 16.4258 258.499 16.6536 258.043 17.1094C257.587 17.5651 257.268 18.2305 257.086 19.1055C256.922 19.9622 256.84 20.9922 256.84 22.1953V40.6797C256.84 41.9193 256.913 42.9766 257.059 43.8516C257.223 44.7266 257.514 45.401 257.934 45.875C258.371 46.3307 259.009 46.5586 259.848 46.5586C260.668 46.5586 261.279 46.3216 261.68 45.8477C262.099 45.3555 262.372 44.6719 262.5 43.7969C262.628 42.9219 262.691 41.8919 262.691 40.707V35.8398H269.691V39.9961C269.691 41.8737 269.527 43.5872 269.199 45.1367C268.871 46.668 268.333 47.9805 267.586 49.0742C266.839 50.168 265.845 51.0156 264.605 51.6172C263.366 52.2005 261.844 52.4922 260.039 52.4922ZM275.871 52V3.46484H283.117V15.6875C283.482 14.2839 284.211 13.0716 285.305 12.0508C286.417 11.0117 287.811 10.4922 289.488 10.4922C291.876 10.4922 293.672 11.2852 294.875 12.8711C296.096 14.4388 296.707 16.7174 296.707 19.707V52H289.488V20.3906C289.488 19.0781 289.233 18.0938 288.723 17.4375C288.23 16.763 287.52 16.4258 286.59 16.4258C285.842 16.4258 285.204 16.6354 284.676 17.0547C284.165 17.474 283.773 18.0664 283.5 18.832C283.245 19.5977 283.117 20.4909 283.117 21.5117V52H275.871ZM302.504 59.2461V54.2422H304.883C305.685 54.2422 306.359 54.1693 306.906 54.0234C307.453 53.8958 307.763 53.6042 307.836 53.1484C307.964 52.9115 308.009 52.4922 307.973 51.8906C307.936 51.2708 307.882 50.6875 307.809 50.1406L301.246 10.9844H308.137L310.762 31.957L311.855 43.0039H312.457L313.441 31.957L315.848 10.9844H322.711L315.602 53.75C315.401 55.0443 315.118 56.0924 314.754 56.8945C314.408 57.7148 313.879 58.3073 313.168 58.6719C312.457 59.0547 311.473 59.2461 310.215 59.2461H302.504ZM333.867 52.4102C331.06 52.4102 329.109 51.3893 328.016 49.3477C326.94 47.306 326.384 44.599 326.348 41.2266V38.6016C326.348 36.4141 326.658 34.6367 327.277 33.2695C327.915 31.9023 328.818 30.7904 329.984 29.9336C331.151 29.0768 332.546 28.3294 334.168 27.6914C335.79 27.0534 337.595 26.3698 339.582 25.6406V22.0586C339.582 20.6732 339.527 19.5703 339.418 18.75C339.309 17.9115 339.062 17.3008 338.68 16.918C338.297 16.5352 337.704 16.3438 336.902 16.3438C336.118 16.3438 335.517 16.5443 335.098 16.9453C334.697 17.3281 334.423 17.9297 334.277 18.75C334.132 19.5521 334.059 20.582 334.059 21.8398V23.6719H326.895V22.4414C326.895 20.5638 327.049 18.8867 327.359 17.4102C327.688 15.9336 328.234 14.6849 329 13.6641C329.766 12.625 330.805 11.8411 332.117 11.3125C333.448 10.7656 335.116 10.4922 337.121 10.4922C338.889 10.4922 340.402 10.7474 341.66 11.2578C342.918 11.75 343.939 12.4974 344.723 13.5C345.507 14.4844 346.081 15.724 346.445 17.2188C346.81 18.7135 346.992 20.4544 346.992 22.4414V52H339.691V47.9258C339.473 48.7096 339.099 49.4479 338.57 50.1406C338.042 50.8151 337.376 51.362 336.574 51.7812C335.79 52.2005 334.888 52.4102 333.867 52.4102ZM336.383 46.832C337.294 46.832 338.023 46.5039 338.57 45.8477C339.117 45.1914 339.454 44.526 339.582 43.8516V29.7422C338.488 30.2344 337.568 30.6992 336.82 31.1367C336.073 31.556 335.471 32.0208 335.016 32.5312C334.56 33.0417 334.232 33.6432 334.031 34.3359C333.831 35.0286 333.73 35.8763 333.73 36.8789V41.4727C333.73 43.3503 333.922 44.7174 334.305 45.5742C334.706 46.4128 335.398 46.832 336.383 46.832ZM353.691 52V10.9844H360.938V15.6875C361.302 14.2839 362.068 13.0716 363.234 12.0508C364.401 11.0117 365.832 10.4922 367.527 10.4922C369.897 10.4922 371.674 11.2852 372.859 12.8711C374.044 14.4388 374.637 16.7174 374.637 19.707V52H367.391V20.1445C367.391 18.9596 367.117 18.0299 366.57 17.3555C366.042 16.681 365.312 16.3438 364.383 16.3438C363.635 16.3438 362.997 16.5534 362.469 16.9727C361.958 17.3737 361.576 17.9388 361.32 18.668C361.065 19.3789 360.938 20.2174 360.938 21.1836V52H353.691Z" fill="#CCC9BB"/>
</svg>
