<svg width="32" height="32" viewBox="0 0 32 32" fill="none" xmlns="http://www.w3.org/2000/svg">
<g clip-path="url(#clip0_305_1261)">
<path fill-rule="evenodd" clip-rule="evenodd" d="M0 1.12406C0 1.36759 -0.0814086 1.60298 -0.217805 1.80474C-1.02729 3.00213 -1.5 4.44586 -1.5 6V26C-1.5 27.6234 -0.98423 29.1263 -0.107617 30.3538C-0.038922 30.45 0 30.5646 0 30.6828V31.3033C0 31.5604 0.310844 31.6892 0.492641 31.5074C0.605339 31.3947 0.787687 31.3951 0.904612 31.5034C2.24235 32.7426 4.03272 33.5 6 33.5H26C30.1421 33.5 33.5 30.1421 33.5 26V6C33.5 4.03272 32.7426 2.24235 31.5034 0.904612C31.3951 0.787687 31.3947 0.605339 31.5074 0.492641C31.6892 0.310844 31.5604 0 31.3033 0H30.6828C30.5646 0 30.45 -0.0389218 30.3538 -0.107617C29.1263 -0.98423 27.6234 -1.5 26 -1.5H6C4.44586 -1.5 3.00213 -1.02729 1.80474 -0.217805C1.60298 -0.0814089 1.36759 0 1.12406 0C0.503257 0 0 0.503257 0 1.12406ZM6 30.5C4.04784 30.5 3.93704 28.063 5.31743 26.6826L26.6826 5.31743C28.063 3.93704 30.5 4.04784 30.5 6V26C30.5 28.4853 28.4853 30.5 26 30.5H6Z" fill="#CCC9BB"/>
</g>
<defs>
<clipPath id="clip0_305_1261">
<rect width="32" height="32" rx="6" fill="white"/>
</clipPath>
</defs>
</svg>
